STARTFONT 2.1
FONT jis.jis6a00.24
SIZE 24 72 72
FONTBOUNDINGBOX 24 24 0 -3
STARTPROPERTIES 4
FONT_DESCENT 3
FONT_ASCENT 21
DEFAULT_CHAR 2
COPYRIGHT "Copyright (c) 1992 AT&T - All rights reserved."
ENDPROPERTIES
CHARS 153
STARTCHAR ch-2
ENCODING 2
SWIDTH 1000 0
DWIDTH 24 0
BBX 24 24 0 -3
BITMAP
082008
0c380c
08b308
90ff90
60c360
34c334
36c336
0cff0c
08c308
10c310
24c322
feffff
72c371
400040
001c00
001806
ffffff
00fa00
01d980
0398e0
06187f
18181e
e01806
001800
ENDCHAR
STARTCHAR ch-5
ENCODING 5
SWIDTH 1000 0
DWIDTH 24 0
BBX 24 24 0 -3
BITMAP
1c2008
183a0e
18310c
186108
1b4198
ff8190
182010
183826
1837ff
3c3060
3a6060
3b6760
3b6660
78e66c
59667e
586660
586660
986660
186660
186560
1864e0
186470
18643f
18680e
ENDCHAR
STARTCHAR ch-10
ENCODING 10
SWIDTH 1000 0
DWIDTH 24 0
BBX 24 24 0 -3
BITMAP
0e0438
0c2630
0c1430
0d8836
ffd5ff
1c2230
1e0078
3d0478
2da6b4
6d94b6
4c0937
8c1432
0c6230
0c0030
001c00
001806
ffffff
003400
007200
00e180
01c0e0
03807e
0e003c
70000c
ENDCHAR
STARTCHAR ch-11
ENCODING 11
SWIDTH 1000 0
DWIDTH 24 0
BBX 24 24 0 -3
BITMAP
1c000c
188ffe
186018
183120
1a30c0
ff3060
180464
1c07fe
1a0444
1b0444
3b0444
3867fc
3bf444
386444
786444
5867fc
586444
986444
18645c
18644c
18d000
1b8fff
1983fe
190000
ENDCHAR
STARTCHAR ch-12
ENCODING 12
SWIDTH 1000 0
DWIDTH 24 0
BBX 24 24 0 -3
BITMAP
0e1018
0c1ffc
0c1918
0d9918
ffffff
0c1918
0c1918
0c1ff8
1c0000
1e200c
1d3ffe
1db00c
3db00c
2c3ffc
2c300c
6c300c
4c3ffc
8c300c
0c300c
0c3ffc
0c0800
0c0e38
0c1c0f
0ce003
ENDCHAR
STARTCHAR ch-18
ENCODING 18
SWIDTH 1000 0
DWIDTH 24 0
BBX 24 24 0 -3
BITMAP
0e01c0
0c2180
0c2186
0c3fff
0d6006
ffe224
0c61b0
0c04b0
0c2464
1c3442
1e2483
1d4513
3d8618
2d9bf8
2c6000
6c01c0
4c398e
8c318c
0c318c
0c318c
0c318c
0c3ffc
0c300c
0c300c
ENDCHAR
STARTCHAR ch-19
ENCODING 19
SWIDTH 1000 0
DWIDTH 24 0
BBX 24 24 0 -3
BITMAP
1c0380
182308
183ffc
182308
1b230a
ffffff
182308
182308
183ff8
3c0300
3a3ff8
3b2308
3b2308
783ff8
580300
580606
59ffff
980c30
181860
183fc0
1831f0
18073c
181c0e
18e006
ENDCHAR
STARTCHAR ch-20
ENCODING 20
SWIDTH 1000 0
DWIDTH 24 0
BBX 24 24 0 -3
BITMAP
0e0408
0c430e
0c318c
0c1998
0d9810
ffc020
0c3ffc
0c318c
0c318c
1e3ffc
1d318c
1db18c
3db18c
2c3ffc
2c0180
6c0186
4cffff
8c07a0
0c0db0
0c0d98
0c199f
0c318e
0cc186
0c0180
ENDCHAR
STARTCHAR ch-23
ENCODING 23
SWIDTH 1000 0
DWIDTH 24 0
BBX 24 24 0 -3
BITMAP
1c0030
183ff8
188300
188306
18ffff
ff8306
198304
187b78
180300
3c7b78
3a0300
3b0000
3b7ffc
780000
580000
59ffff
981800
181818
183ffc
183018
180018
180038
1803f0
1800e0
ENDCHAR
STARTCHAR ch-25
ENCODING 25
SWIDTH 1000 0
DWIDTH 24 0
BBX 24 24 0 -3
BITMAP
1c000c
19fffe
180480
180480
1a4498
ff7ffc
186498
186498
1c6498
3a6498
3b7ff8
3b6018
380000
787ff8
580000
580006
9bffff
180300
184320
187318
18630c
18c306
1b1f06
180600
ENDCHAR
STARTCHAR ch-27
ENCODING 27
SWIDTH 1000 0
DWIDTH 24 0
BBX 24 24 0 -3
BITMAP
0e0204
0c7ffe
0c0204
0c2244
0d9a34
ffca14
0c0204
0c0e1c
0c72e4
1e2244
1d0700
1d8680
3d8c60
2c1838
2c321f
6cc706
4c0c40
8c30e0
0c0188
0c061c
0c1870
0c01c0
0c0700
0c3800
ENDCHAR
STARTCHAR ch-30
ENCODING 30
SWIDTH 1000 0
DWIDTH 24 0
BBX 24 24 0 -3
BITMAP
1c400c
187ffe
186000
186208
1b63fc
ffe208
186208
186208
1863f8
3c6208
3a6000
3b6000
3b68a2
786fbf
5868a2
5868a2
5868a2
9868a2
186fbe
1868a2
186000
186006
187fff
186000
ENDCHAR
STARTCHAR ch-31
ENCODING 31
SWIDTH 1000 0
DWIDTH 24 0
BBX 24 24 0 -3
BITMAP
0e01c0
0c0180
0c018c
0c3ffe
0d8820
ffc430
0c0620
0c0246
0cffff
1e0000
1d1ff8
1d9818
3d9818
2c1ff8
2c1818
6c1818
4c1ff8
8c0180
0c0186
0cffff
0c0180
0c0180
0c0180
0c0180
ENDCHAR
STARTCHAR ch-33
ENCODING 33
SWIDTH 1000 0
DWIDTH 24 0
BBX 24 24 0 -3
BITMAP
0e0e70
0c0c60
0c0c66
0cffff
0c0c60
ffcc60
0c3ff8
0c3018
0c3018
1e3ff8
1d3018
1db018
3db018
2c3ff8
2c0300
6c0306
4dffff
8c0680
0c0c40
0c0c60
0c1838
0c301f
0c600e
0d8006
ENDCHAR
STARTCHAR ch-34
ENCODING 34
SWIDTH 1000 0
DWIDTH 24 0
BBX 24 24 0 -3
BITMAP
0e0100
0c0180
0c1318
0c1ffc
0d9818
ffd818
0c1ff8
0c1818
0c1818
1e1ff8
1d9800
1cd806
3cdfff
2c1800
2c1806
6c1fff
4c1806
8c0026
0c4936
0c4996
0ccc86
0d8c0c
0d807c
0c0018
ENDCHAR
STARTCHAR ch-35
ENCODING 35
SWIDTH 1000 0
DWIDTH 24 0
BBX 24 24 0 -3
BITMAP
0e2020
0c1838
0c0c30
0c0c44
0c7ffe
ff8300
0c0308
0c7ffc
0e0300
1d0302
1dffff
1d8800
3c0700
2c0308
2cff8e
6c031c
4c03a0
8cfb40
0c1b60
0c3338
0c231f
0c430e
0d8f06
0c0600
ENDCHAR
STARTCHAR ch-41
ENCODING 41
SWIDTH 1000 0
DWIDTH 24 0
BBX 24 24 0 -3
BITMAP
0e1000
0c1c00
0c1818
0c1ffc
0d3600
ffa600
0c4606
0cffff
0e0c40
1d0c70
1d9860
1d9ffe
3c30c0
2c70c0
2cbffe
6d30c0
4c30c0
8c30c0
0c3ffe
0c30c0
0c30c0
0c30c6
0c3fff
0c3000
ENDCHAR
STARTCHAR ch-42
ENCODING 42
SWIDTH 1000 0
DWIDTH 24 0
BBX 24 24 0 -3
BITMAP
0e0e70
0c0c60
0c0c64
0c7ffe
0d0c60
ff8c60
0c0c62
0cffff
1c0180
1c218c
1e3ffe
1d318c
3db18c
2dbffc
2c318c
6c318c
4c318c
8c3ffc
0c300c
0c0800
0c0e60
0c1c1c
0c300e
0cc006
ENDCHAR
STARTCHAR ch-43
ENCODING 43
SWIDTH 1000 0
DWIDTH 24 0
BBX 24 24 0 -3
BITMAP
1c4200
187f06
1848ff
184846
1b4846
ffff4c
18412c
184128
187f18
3c4810
3a4838
3b482f
3b7e46
784186
584000
580380
980318
187ffc
180300
180300
180300
180306
19ffff
180000
ENDCHAR
STARTCHAR ch-46
ENCODING 46
SWIDTH 1000 0
DWIDTH 24 0
BBX 24 24 0 -3
BITMAP
0e0006
0cffff
0c0240
0c0240
0da24c
fffffe
0c324c
0c324c
0c324c
1e324c
1d3ffc
1db00c
3d8000
2c0388
2c130e
6c131c
4c3310
8c66a0
0c6640
0c0c60
0c0c38
0c181f
0c300e
0cc006
ENDCHAR
STARTCHAR ch-53
ENCODING 53
SWIDTH 1000 0
DWIDTH 24 0
BBX 24 24 0 -3
BITMAP
1c0840
180e70
180c60
181840
1b1086
ffbfff
1870c0
18b0c0
193ffc
3c30c0
3b30c0
39b0c0
39bffc
7830c0
5830c0
5830c6
983fff
183000
180000
184488
184446
18cc63
198c63
198c63
ENDCHAR
STARTCHAR ch-54
ENCODING 54
SWIDTH 1000 0
DWIDTH 24 0
BBX 24 24 0 -3
BITMAP
1c2018
183ffc
183018
183018
1b3ff8
ffb018
183018
183ff8
1c0000
3a0006
3bffff
3b4400
38440c
787dfe
58448c
58448c
587c88
984458
184450
184430
19fc7c
18e4cf
188706
180400
ENDCHAR
STARTCHAR ch-56
ENCODING 56
SWIDTH 1000 0
DWIDTH 24 0
BBX 24 24 0 -3
BITMAP
1c0cc0
188cc8
184cce
186ccc
186cd0
ff0cc0
18fffe
182020
181830
3c0840
3a7ffc
3b0300
3b0300
787ffc
580300
580306
59ffff
980680
180c40
180c60
181838
18301f
18600e
198006
ENDCHAR
STARTCHAR ch-57
ENCODING 57
SWIDTH 1000 0
DWIDTH 24 0
BBX 24 24 0 -3
BITMAP
1c1c0e
18180c
18190c
19ff8c
18180c
ff180c
1818ff
18ff0c
18000c
3c830c
3aff8c
3ac34c
38c36c
78c36c
58ff0c
58040c
98870c
18460c
18640c
18640c
18098c
1bfe0c
19e07c
190018
ENDCHAR
STARTCHAR ch-58
ENCODING 58
SWIDTH 1000 0
DWIDTH 24 0
BBX 24 24 0 -3
BITMAP
0e0e38
0c0c30
0c0c32
0cffff
0c0c30
ffcc30
0c0000
0c7ffe
0c1998
1e1998
1d1998
1dffff
3d9998
2c1998
2c1998
6c1998
4c7ffe
8c0180
0c0182
0cffff
0c0180
0c0180
0c0180
0c0180
ENDCHAR
STARTCHAR ch-61
ENCODING 61
SWIDTH 1000 0
DWIDTH 24 0
BBX 24 24 0 -3
BITMAP
0e2020
0c1838
0c0c30
0c0c46
0d7fff
ff8240
0c224c
0c3ffe
0c324c
1e344c
1d383c
1db00c
3dbffc
2c300c
2c300c
6c3ffc
4c0030
8c0032
0dffff
0c1030
0c0830
0c0c30
0c0df0
0c0060
ENDCHAR
STARTCHAR ch-68
ENCODING 68
SWIDTH 1000 0
DWIDTH 24 0
BBX 24 24 0 -3
BITMAP
1c0040
180670
18ff60
181860
1a1860
ff1b66
18ffff
1844c8
18448e
3c448c
3a7d4c
3b444c
3b4448
784458
587c58
584450
584430
984430
184438
187c68
19e44c
18c4cf
188486
180506
ENDCHAR
STARTCHAR ch-71
ENCODING 71
SWIDTH 1000 0
DWIDTH 24 0
BBX 24 24 0 -3
BITMAP
0e0060
0c03f0
0c1f00
0c0200
0d9ff0
ffc200
0c3ffc
0c0210
0e0218
1d03f8
1d81f0
1d8808
3c3c3c
2de1e0
2c2020
6dfdfe
4c2020
8c2020
0ffdff
0c2020
0c2222
0c2323
0c3f3f
0c1e1e
ENDCHAR
STARTCHAR ch-72
ENCODING 72
SWIDTH 1000 0
DWIDTH 24 0
BBX 24 24 0 -3
BITMAP
0e01c0
0c0188
0c1ffc
0c0180
0d8184
fffffe
0c0000
0c0c18
0e0810
1d7f7e
1d8810
1d8810
3c0e12
2cf8ff
2c6000
6c0000
4c7ffe
8c0c60
0c0c60
0c0c62
0c1862
0c1863
0c307f
0cc03e
ENDCHAR
STARTCHAR ch-75
ENCODING 75
SWIDTH 1000 0
DWIDTH 24 0
BBX 24 24 0 -3
BITMAP
1c0070
1803f8
187f00
180600
198606
ffffff
180c40
180820
181ff8
3c285f
3ac846
3b0fc0
3b0000
78800c
58fffe
58c00c
98c00c
18cfcc
18c84c
18c84c
18cfcc
18c00c
18c03c
18c018
ENDCHAR
STARTCHAR ch-88
ENCODING 88
SWIDTH 1000 0
DWIDTH 24 0
BBX 24 24 0 -3
BITMAP
1c0018
183ffc
180038
180660
1b0186
ffffff
1806c4
180cc8
1870c0
3c07c0
3a4186
3b7fff
3b6666
786666
586c7e
58683e
987006
1867e6
186666
186666
1867e6
186006
18603e
18600c
ENDCHAR
STARTCHAR ch-89
ENCODING 89
SWIDTH 1000 0
DWIDTH 24 0
BBX 24 24 0 -3
BITMAP
0e0188
0c7f8c
0c0348
0c2352
0d9a23
ffce22
0c0414
0c081c
0c17ef
1e2006
1d8000
1cc818
3ccffc
2c0c18
2c0c18
6c0c18
4c0ff8
8c0020
0c0838
0c0630
0c0220
0c0046
0c7fff
0c0000
ENDCHAR
STARTCHAR ch-95
ENCODING 95
SWIDTH 1000 0
DWIDTH 24 0
BBX 24 24 0 -3
BITMAP
1c2390
183b1c
183318
1943a0
189348
fedf6e
185b2c
183310
1c2324
3a4bfe
3bff62
3b6550
38410c
788104
58ffff
58c080
58c0d0
98e05c
18d858
18cc32
188c72
1980da
19030f
1a0c03
ENDCHAR
STARTCHAR ch-97
ENCODING 97
SWIDTH 1000 0
DWIDTH 24 0
BBX 24 24 0 -3
BITMAP
0e0800
0c0c30
0c0ff8
0c1860
0d1040
ffa080
0c7ffe
0cb086
0c3086
1e3086
1d3ffe
1d8380
3d8708
2c198e
2c618c
6c02d0
4c0cc0
8c31e0
0cc2d0
0c0cdf
0c30ce
0cc1c6
0c0f80
0c0300
ENDCHAR
STARTCHAR ch-98
ENCODING 98
SWIDTH 1000 0
DWIDTH 24 0
BBX 24 24 0 -3
BITMAP
1c0040
188870
18fc66
18cbff
1ac8c0
ffc880
18c9fe
18c910
18d210
3cd0ff
3ac800
3bc800
3bc9fe
78c986
58c986
58c9fe
58c986
98f986
18d9fe
18c186
18c186
18c186
18c19e
18c18c
ENDCHAR
STARTCHAR ch-102
ENCODING 102
SWIDTH 1000 0
DWIDTH 24 0
BBX 24 24 0 -3
BITMAP
0e0380
0c0300
0c0318
0c7ffc
0d9040
ffcc60
0c0440
0c008c
0cfffe
1e0000
1d3ff8
1db118
3db118
2c3ff8
2c3118
6c3118
4c3ff8
8c0100
0c0108
0c7ffc
0c0100
0c0102
0dffff
0c0000
ENDCHAR
STARTCHAR ch-114
ENCODING 114
SWIDTH 1000 0
DWIDTH 24 0
BBX 24 24 0 -3
BITMAP
0e01c0
0c0180
0c0186
0c7fff
0c0180
ff8180
0c3ffe
0c0000
0c0000
1e1ffc
1d180c
1d980c
3d9ffc
2c0830
2c0630
6c0642
4c7fff
8c0000
0c0000
0c1ffc
0c180c
0c180c
0c1ffc
0c180c
ENDCHAR
STARTCHAR ch-120
ENCODING 120
SWIDTH 1000 0
DWIDTH 24 0
BBX 24 24 0 -3
BITMAP
0e1018
0c1ffc
0c1818
0c1818
0d9ff8
ffd818
0c1818
0c1818
0c1ff8
1e1818
1d0000
1d8000
3d8646
2c7f7f
2c4646
6c4646
4c4646
8c7e7e
0c4646
0c4646
0c4646
0c4646
0c7e7e
0c4646
ENDCHAR
STARTCHAR ch-127
ENCODING 127
SWIDTH 1000 0
DWIDTH 24 0
BBX 24 24 0 -3
BITMAP
0e0006
0c7fff
0c0000
0c1ffc
0d988c
ffd88c
0c1ffc
0c188c
0c188c
1e1ffc
1d0000
1dffff
3d8000
2c1ffc
2c188c
6c188c
4c1ffc
8c188c
0c188c
0c1ffc
0c0000
0c0006
0c7fff
0c0000
ENDCHAR
STARTCHAR ch-128
ENCODING 128
SWIDTH 1000 0
DWIDTH 24 0
BBX 24 24 0 -3
BITMAP
0e01c0
0c0186
0cffff
0c0000
0c3ffc
ffa004
0c27e4
0c2424
0c2424
1e27e4
1d2004
1dbffc
3d8000
2c1ff8
2c1818
6c1818
4c1ff8
8c1818
0c1818
0c1ff8
0c1818
0c0002
0dffff
0c0000
ENDCHAR
STARTCHAR ch-132
ENCODING 132
SWIDTH 1000 0
DWIDTH 24 0
BBX 24 24 0 -3
BITMAP
1c2040
183870
183060
18fe60
18c660
ffc666
18fe7f
18c6c8
1cc68e
3afe8c
3b014c
3b304c
38304c
79ff28
583028
583038
587e10
986610
186638
184628
18ce6c
188c4f
193c86
1a1906
ENDCHAR
STARTCHAR ch-141
ENCODING 141
SWIDTH 1000 0
DWIDTH 24 0
BBX 24 24 0 -3
BITMAP
0e01c0
0c0180
0c018c
0c3ffe
0d8810
ffc410
0c0426
0c7fff
0c0000
1e1ff8
1d1818
1d9818
3d9ff8
2c1818
2c1818
6c1ff8
4c0200
8c0180
0c2cc8
0c2cc6
0c4c13
0ccc1b
0ccff8
0c07f0
ENDCHAR
STARTCHAR ch-142
ENCODING 142
SWIDTH 1000 0
DWIDTH 24 0
BBX 24 24 0 -3
BITMAP
0e0300
0c0300
0c0680
0c0660
0d8c38
ffd99f
0c3186
0cdff8
0c0000
1e1668
1d1188
1d9668
3d9008
2c1ff8
2c0180
6c4106
4c7fff
8c6246
0c6226
0c6ff6
0c6636
0c6006
0c603e
0c600c
ENDCHAR
STARTCHAR ch-144
ENCODING 144
SWIDTH 1000 0
DWIDTH 24 0
BBX 24 24 0 -3
BITMAP
0e0800
0c0c60
0c0ff0
0c1840
0d1086
ffbfff
0c7330
0c3330
0c323e
1e341e
1d3800
1db1f8
3db000
2c3fff
2c3000
6c33fc
4c2000
8c63fc
0c6000
0c47fe
0cc606
0c8606
0d07fe
0c0606
ENDCHAR
STARTCHAR ch-151
ENCODING 151
SWIDTH 1000 0
DWIDTH 24 0
BBX 24 24 0 -3
BITMAP
1060e0
1ff0c0
1860c4
186ffe
186210
1fe318
180110
180024
1feffe
3c60c0
2c60c4
2c6ffe
4fe0c0
8c60c0
0c1cc0
00180c
7ffffe
007a00
00d980
0198e0
07187f
1c181e
e01806
001800
ENDCHAR
STARTCHAR ch-156
ENCODING 156
SWIDTH 1000 0
DWIDTH 24 0
BBX 24 24 0 -3
BITMAP
0e0300
0c0300
0c0680
0c0640
0d8c30
ffdbdc
0c300f
0c6006
0cbff8
1e2108
1d2928
1da548
3da108
2c3ff8
2c0000
6c0000
4c1ff0
8c1830
0c1830
0c1ff0
0c1830
0c1830
0c1ff0
0c1830
ENDCHAR
STARTCHAR ch-160
ENCODING 160
SWIDTH 1000 0
DWIDTH 24 0
BBX 24 24 0 -3
BITMAP
0ee100
0cc1c0
7ff986
0cc1ff
200308
3ff28c
3034d8
2f3070
693020
493070
8f30dc
00618f
03e606
00c000
001c00
001806
ffffff
007a00
00f980
01d8e0
07187f
1c181e
e01806
001800
ENDCHAR
STARTCHAR ch-162
ENCODING 162
SWIDTH 1000 0
DWIDTH 24 0
BBX 24 24 0 -3
BITMAP
1c0300
180300
180680
180640
1b0c30
ff981f
18300e
18cfe6
180000
3c0000
3a4646
3b7f7f
3b4646
784646
584646
587e7e
580000
981020
181c38
181830
183668
182246
184083
188103
ENDCHAR
STARTCHAR ch-163
ENCODING 163
SWIDTH 1000 0
DWIDTH 24 0
BBX 24 24 0 -3
BITMAP
0e01c0
0c018c
0c7ffe
0c0180
0d9188
ffdd8e
0c198c
0c3198
0c2d96
1e45a2
1d0180
1dffff
3d8000
2c200c
2c3ffe
6c300c
4c33cc
8c324c
0c324c
0c324c
0c33cc
0c300c
0c3ffc
0c300c
ENDCHAR
STARTCHAR ch-170
ENCODING 170
SWIDTH 1000 0
DWIDTH 24 0
BBX 24 24 0 -3
BITMAP
1c0200
180380
188304
184fe7
1b6c66
ffec6c
186c68
180fe0
1e0c60
3b1c70
3b2c6c
38efe6
384006
780380
580300
59ffff
580740
980f20
180b30
181b18
18331f
18630e
198306
180300
ENDCHAR
STARTCHAR ch-172
ENCODING 172
SWIDTH 1000 0
DWIDTH 24 0
BBX 24 24 0 -3
BITMAP
0e0770
0c0666
0c7fff
0c0660
0d2666
ffbfff
0c6006
0c6004
0c0ff0
1e0000
1d8006
1cffff
3cc380
2c0708
2c198e
6c638c
4c06d0
8c18e0
0c61d0
0c06dc
0c18cf
0ce0c6
0c07c0
0c0180
ENDCHAR
STARTCHAR ch-174
ENCODING 174
SWIDTH 1000 0
DWIDTH 24 0
BBX 24 24 0 -3
BITMAP
0e0180
0c0100
0c7ffc
0c0100
0d0100
ffbff8
0c0002
0cffff
0c0002
1e1ff4
1d0100
1d8100
3dbff8
2c0000
2cffff
6c0018
4c0018
8cfdff
0ccc18
0ccd98
0ccc98
0cfc18
0c0078
0c0030
ENDCHAR
STARTCHAR ch-179
ENCODING 179
SWIDTH 1000 0
DWIDTH 24 0
BBX 24 24 0 -3
BITMAP
0e01c0
0c2186
0c3fff
0c6006
0d6ff4
ff8100
0c1126
0c3973
0c61c3
1e0700
1d7ff8
1d9818
3d9818
2c1ff8
2c1818
6c1818
4c1ff8
8c1818
0c1818
0c1ff8
0c0400
0c0e38
0c1c0e
0c6006
ENDCHAR
STARTCHAR ch-184
ENCODING 184
SWIDTH 1000 0
DWIDTH 24 0
BBX 24 24 0 -3
BITMAP
0e01c0
0c2180
0c2186
0c3fff
0d6004
ffe100
0c648c
0c14a6
0c3436
1e37f0
1d0000
1d8000
3dbffe
2c2222
2c2222
6c3ffe
4c0000
8c0006
0cffff
0c0180
0c0180
0c0180
0c0f80
0c0300
ENDCHAR
STARTCHAR ch-187
ENCODING 187
SWIDTH 1000 0
DWIDTH 24 0
BBX 24 24 0 -3
BITMAP
0e2320
0c3fb8
0c2430
0c2430
0da426
ffff7f
0c2140
0c2180
0c3f00
1e2406
1d247f
1da400
3dbf80
2c2000
2c0000
6c3ffc
4c324c
8c324c
0c324c
0c324c
0c324c
0c324c
0cffff
0c0000
ENDCHAR
STARTCHAR ch-193
ENCODING 193
SWIDTH 1000 0
DWIDTH 24 0
BBX 24 24 0 -3
BITMAP
0e01c0
0c2180
0c2186
0c3fff
0d6006
ffe214
0c0198
0c24b4
0c3462
1c24c3
1e4513
1d0e18
3db3f8
2d8000
2c0180
6c3ffc
4c318c
8c318c
0c3ffc
0c0190
0c0188
0c7ffc
0c3f86
0c3006
ENDCHAR
STARTCHAR ch-194
ENCODING 194
SWIDTH 1000 0
DWIDTH 24 0
BBX 24 24 0 -3
BITMAP
0e0606
0c7f7f
0c0606
0c0606
0c7e7e
ff8606
0c0606
0c0606
0c7e7e
1e0606
1d1080
1d9ce0
3d98cc
2c3ffe
2c3080
6c7088
4cbffc
8d3080
0c3088
0c3ffc
0c3080
0c3086
0c3fff
0c3000
ENDCHAR
STARTCHAR ch-195
ENCODING 195
SWIDTH 1000 0
DWIDTH 24 0
BBX 24 24 0 -3
BITMAP
1c800c
18fffe
18c000
18c080
1acff8
ffc888
18c888
18cff8
18c080
38fffe
3cc000
3acff8
3ac808
7acff8
58c808
58cff8
58c808
98cff8
18c400
18ce78
18d818
18c006
18ffff
18c000
ENDCHAR
STARTCHAR ch-209
ENCODING 209
SWIDTH 1000 0
DWIDTH 24 0
BBX 24 24 0 -3
BITMAP
1c2018
183ffc
183118
183118
1b3118
ffbff8
183118
183118
1c3118
3a3ff8
3b3018
3b0000
380000
790482
59feff
592492
592492
992492
19fcfe
192492
192492
192492
19fcfe
190482
ENDCHAR
STARTCHAR ch-211
ENCODING 211
SWIDTH 1000 0
DWIDTH 24 0
BBX 24 24 0 -3
BITMAP
1c0800
180cc0
181fe0
181080
1a2108
ff7ffc
18a108
182108
1c3ff8
3a2108
3b2108
3b3ff8
384444
78cc62
598c63
598003
983ff0
183030
183030
183ff0
183030
183030
183ff0
183030
ENDCHAR
STARTCHAR ch-218
ENCODING 218
SWIDTH 1000 0
DWIDTH 24 0
BBX 24 24 0 -3
BITMAP
1c8446
18fe7f
18c446
18c446
1afc7e
ffc446
18c446
18fc7e
18c006
3cc006
3ac7c6
3ac446
3ac446
78c7c6
58c106
58c206
58cfe6
98c826
18c826
18c826
18cfe6
18c006
18c03e
18c00c
ENDCHAR
STARTCHAR ch-219
ENCODING 219
SWIDTH 1000 0
DWIDTH 24 0
BBX 24 24 0 -3
BITMAP
1c2080
1838e0
1832c6
183fff
1868a0
ff4d18
188408
180000
184246
3c7f7f
3a6266
3b6266
3b7e66
786266
586266
587e66
986066
186466
186266
18677e
19fb6c
18e360
188060
180060
ENDCHAR
STARTCHAR ch-222
ENCODING 222
SWIDTH 1000 0
DWIDTH 24 0
BBX 24 24 0 -3
BITMAP
1c1018
1819fc
183018
182018
1941f8
fe8818
18cc18
18d81a
1813ff
3c2430
3a4660
3bfac2
3af143
783266
5830a8
593520
59b630
99b668
19b0ac
193126
193627
1a3022
1831e0
183060
ENDCHAR
STARTCHAR ch-223
ENCODING 223
SWIDTH 1000 0
DWIDTH 24 0
BBX 24 24 0 -3
BITMAP
1c2204
183386
183306
18a7d4
18c458
ff544a
185c4b
1837c6
182444
3c4448
3a5452
3bffff
3b4811
780380
580300
59ffff
580740
980f20
180b30
181b18
18331f
18630e
198306
180300
ENDCHAR
STARTCHAR ch-232
ENCODING 232
SWIDTH 1000 0
DWIDTH 24 0
BBX 24 24 0 -3
BITMAP
1c0380
180310
1803f8
188302
18ffff
ffc606
18c7c4
18fe10
18c618
3cc3f8
3ac000
3acff8
3ac888
78cff8
58c888
58cff8
98c000
189ffc
189224
199224
191224
1a1224
18ffff
180000
ENDCHAR
STARTCHAR ch-234
ENCODING 234
SWIDTH 1000 0
DWIDTH 24 0
BBX 24 24 0 -3
BITMAP
1c4006
187fff
186000
186318
1b6210
ffe292
187fff
186210
1867b8
3c66b8
3a6a54
3b7297
3b6212
786210
5860e0
58c0c0
58cecc
988cfe
198cc0
190cc0
1a0cc0
180cc6
187fff
180000
ENDCHAR
STARTCHAR ch-250
ENCODING 250
SWIDTH 1000 0
DWIDTH 24 0
BBX 24 24 0 -3
BITMAP
0e0006
0c7fff
0c0180
0c2186
0d3fff
ffe186
0c6184
0c1db8
0c0180
1e0180
1d3dbc
1d8180
3d8180
2c0000
2c0000
6c7bde
4c4a52
8c4a52
0c4a52
0c4a52
0c4a52
0c4a52
0c7bde
0c0000
ENDCHAR
STARTCHAR ch-251
ENCODING 251
SWIDTH 1000 0
DWIDTH 24 0
BBX 24 24 0 -3
BITMAP
0e2244
0c3f7e
0c2244
0c2244
0dbe7c
ffe244
0c2244
0c3e7c
0e2244
1d2244
1dbe7c
1d9428
3c3264
2c62c4
2c0000
6c0606
4cffff
8c0c30
0c1830
0c3f60
0c31c0
0c0378
0c0c1e
0c7006
ENDCHAR
STARTCHAR ch-260
ENCODING 260
SWIDTH 1000 0
DWIDTH 24 0
BBX 24 24 0 -3
BITMAP
1c8486
18feff
18c486
18c486
18fcfe
ffc486
18c486
18fcfe
18c006
3cc106
3adff6
3ac106
3acfe6
78c926
58cfe6
58c926
58cfe6
98c306
18c786
18c566
18c926
18d106
18c13e
18c00c
ENDCHAR
STARTCHAR ch-261
ENCODING 261
SWIDTH 1000 0
DWIDTH 24 0
BBX 24 24 0 -3
BITMAP
0e0208
0c210e
0c118c
0c1998
0d9810
ffc026
0c7fff
0c0820
0f0e10
1d9c58
1d99ec
1c378f
3c6186
2d8198
2c3ffc
6c0180
4c0186
8cffff
0c0180
0c0180
0c0180
0c0180
0c0f80
0c0300
ENDCHAR
STARTCHAR ch-266
ENCODING 266
SWIDTH 1000 0
DWIDTH 24 0
BBX 24 24 0 -3
BITMAP
0e1c38
0c1830
0cffff
0c1830
0d9830
fffefc
0c4284
0c4284
0c7efc
1e1040
1d1c60
1d9884
3dbffe
2c3080
2c7088
6c7ffc
4cb080
8d3088
0c3ffc
0c3080
0c3080
0c3086
0c3fff
0c3000
ENDCHAR
STARTCHAR ch-274
ENCODING 274
SWIDTH 1000 0
DWIDTH 24 0
BBX 24 24 0 -3
BITMAP
080008
0c7e0c
580058
64ff64
260026
0c7e0c
110012
ff7eff
690069
087e08
2a424c
39426b
694249
887e88
080008
001c00
001806
ffffff
007a00
00d980
0398f0
1e183f
e0180e
001800
ENDCHAR
STARTCHAR ch-278
ENCODING 278
SWIDTH 1000 0
DWIDTH 24 0
BBX 24 24 0 -3
BITMAP
1c8640
18ff70
188860
188846
1afeff
ff8280
188300
18fe0c
18887e
3c8800
3aff00
3b0000
3b3ff8
782008
583ff8
582008
583ff8
982008
183ff8
180cc2
180cc2
1818c3
1830ff
18c07e
ENDCHAR
STARTCHAR ch-285
ENCODING 285
SWIDTH 1000 0
DWIDTH 24 0
BBX 24 24 0 -3
BITMAP
060030
052422
ff99ff
1c2470
1600a8
35a4a7
649922
842420
000000
1ffff8
184218
184218
1ffff8
000000
3fe038
302032
3fefff
302030
3fe430
310330
30c330
ff6030
7861f0
400060
ENDCHAR
STARTCHAR ch-287
ENCODING 287
SWIDTH 1000 0
DWIDTH 24 0
BBX 24 24 0 -3
BITMAP
1c6644
18447e
1bffc4
184444
1a4444
ffef7c
192944
192944
19ef44
1c4044
3a6c7c
3ac844
38ff44
398844
7a8844
58ff7c
588828
988828
18ff28
18886a
18884a
18ff4b
18808f
180106
ENDCHAR
STARTCHAR ch-288
ENCODING 288
SWIDTH 1000 0
DWIDTH 24 0
BBX 24 24 0 -3
BITMAP
020000
038000
030000
03000c
03fffe
06000c
060018
0c3810
083020
103000
203000
403000
003000
006800
006800
006400
00c600
00c300
018180
0300e0
060078
0c003f
30001e
c0000c
ENDCHAR
STARTCHAR ch-289
ENCODING 289
SWIDTH 1000 0
DWIDTH 24 0
BBX 24 24 0 -3
BITMAP
001000
401c00
301800
181800
1c1806
0c1fff
003006
00300c
002388
026310
024300
048300
040300
080680
180680
300680
f00c40
700c40
301820
301830
303018
38601f
18c00e
030006
ENDCHAR
STARTCHAR ch-291
ENCODING 291
SWIDTH 1000 0
DWIDTH 24 0
BBX 24 24 0 -3
BITMAP
006200
00f380
238300
3c0300
300300
300606
3007ff
30c406
3fec06
3309c4
331188
332180
330180
330180
330340
330340
330340
230220
230620
630430
430c18
43081f
83100e
036006
ENDCHAR
STARTCHAR ch-295
ENCODING 295
SWIDTH 1000 0
DWIDTH 24 0
BBX 24 24 0 -3
BITMAP
403200
7ffb80
600300
604300
607606
6867ff
64e406
62cc04
62c8e8
6190c0
6180c0
61c0c0
6340c0
6360c0
6261a0
6631a0
6431a0
6831b0
700110
600318
60621c
7ff20f
60040e
001806
ENDCHAR
STARTCHAR ch-306
ENCODING 306
SWIDTH 1000 0
DWIDTH 24 0
BBX 24 24 0 -3
BITMAP
080200
0e8380
0c6300
183300
103306
2003ff
430606
030404
0684e8
0648c0
0c60c0
1830c0
1030c0
2001a0
5061a0
9ff1a0
186120
186330
186310
186218
18661c
1fe40f
18680e
181006
ENDCHAR
STARTCHAR ch-311
ENCODING 311
SWIDTH 1000 0
DWIDTH 24 0
BBX 24 24 0 -3
BITMAP
004100
1871c0
06e180
038180
0ee180
786306
0e03ff
0c3206
fffe04
1804e8
1308c0
2330c0
3ff8c0
7330c0
b331a0
3331a0
3331a0
333130
333310
33f218
33661c
33040f
03080e
033006
ENDCHAR
STARTCHAR ch-312
ENCODING 312
SWIDTH 1000 0
DWIDTH 24 0
BBX 24 24 0 -3
BITMAP
080100
0e01c0
0c0180
184180
102180
21f306
ff33ff
783206
500604
1c04e8
1860c0
3ff0c0
2600c0
4600c0
0631a0
fff9a0
0601a0
0d0130
0cc310
086218
18661c
10040f
20080e
c03006
ENDCHAR
STARTCHAR ch-313
ENCODING 313
SWIDTH 1000 0
DWIDTH 24 0
BBX 24 24 0 -3
BITMAP
070100
0601c0
066180
7ff180
060180
0d0306
0cc3ff
186206
606604
0004e8
fff8c0
0060c0
0060c0
4360c0
7f61a0
6361a0
6361a0
636130
7f6310
636218
00661c
00640f
03e80e
00d006
ENDCHAR
STARTCHAR ch-314
ENCODING 314
SWIDTH 1000 0
DWIDTH 24 0
BBX 24 24 0 -3
BITMAP
1ce100
18c1c0
18c180
18d980
fffd80
18c106
18c3ff
18c306
1fc204
18c668
18c460
18c860
1fc060
18c060
18c0d0
18c0d0
18d8d0
fffc98
110188
1cc10c
18630c
30620f
600406
801806
ENDCHAR
STARTCHAR ch-317
ENCODING 317
SWIDTH 1000 0
DWIDTH 24 0
BBX 24 24 0 -3
BITMAP
060400
060700
0d0600
0cc600
086606
1867ff
100406
218c04
3fc9c8
460980
861180
06c180
7fe180
060180
068340
46e340
26c340
368220
370620
066430
078c18
fe081f
70100e
406006
ENDCHAR
STARTCHAR ch-318
ENCODING 318
SWIDTH 1000 0
DWIDTH 24 0
BBX 24 24 0 -3
BITMAP
070100
0601c0
063180
fff980
060180
060306
0663ff
7ff206
000604
0004e8
7fe8c0
0000c0
0000c0
fff0c0
0601a0
0601a0
4681a0
766130
663310
663218
46061c
86040f
1e080e
0c3006
ENDCHAR
STARTCHAR ch-323
ENCODING 323
SWIDTH 1000 0
DWIDTH 24 0
BBX 24 24 0 -3
BITMAP
006100
03f1c0
7f0180
020180
020180
021b06
ffffff
020206
020604
0a04e8
5e30c0
72f8c0
6230c0
6230c0
6231a0
7af1a0
6231a0
623130
623310
623218
62361c
7ff40f
60080e
603006
ENDCHAR
STARTCHAR ch-327
ENCODING 327
SWIDTH 1000 0
DWIDTH 24 0
BBX 24 24 0 -3
BITMAP
206100
3ff1c0
306180
306180
3fe180
306306
3063ff
306206
3fe204
0c04e8
0c00c0
1830c0
1ff8c0
3030c0
2231a0
7731a0
bc31a0
3131b0
31b110
3fb118
1f731c
00620f
03e40e
00d806
ENDCHAR
STARTCHAR ch-329
ENCODING 329
SWIDTH 1000 0
DWIDTH 24 0
BBX 24 24 0 -3
BITMAP
404080
3070e0
1860c0
1880c0
fffdc0
090186
0931ff
7ff906
093304
0932e8
fffcc0
0930c0
0930c0
7ff0c0
0931a0
1901a0
1981a0
396130
293310
493218
89061c
09040f
09080e
093006
ENDCHAR
STARTCHAR ch-332
ENCODING 332
SWIDTH 1000 0
DWIDTH 24 0
BBX 24 24 0 -3
BITMAP
003200
fffb80
00c300
00c300
7cc606
44c7ff
44c406
7ccc04
00c9c8
03d180
018180
000180
fff980
00c180
00c340
7cc340
44c340
44c220
44c220
7cc630
00c418
00c41f
07c80e
01b006
ENDCHAR
STARTCHAR ch-334
ENCODING 334
SWIDTH 1000 0
DWIDTH 24 0
BBX 24 24 0 -3
BITMAP
1ce100
18c1c0
18c980
fffd80
18c186
18c1ff
7ff306
663204
6634e8
6638c0
7ff0c0
0600c0
0620c0
7ff0c0
0601a0
0611a0
fff9a0
060130
0d0310
0cc218
18661c
10640f
20080e
c03006
ENDCHAR
STARTCHAR ch-336
ENCODING 336
SWIDTH 1000 0
DWIDTH 24 0
BBX 24 24 0 -3
BITMAP
403200
7ffb80
600300
600300
67e306
6423ff
642606
642604
67e4e8
6008c0
6000c0
6000c0
6f78c0
6948c0
6949a0
6949a0
6949a0
6f79b0
600110
600318
60321c
7ffa0f
60040e
001806
ENDCHAR
STARTCHAR ch-339
ENCODING 339
SWIDTH 1000 0
DWIDTH 24 0
BBX 24 24 0 -3
BITMAP
100100
1831c0
1ff980
330180
230180
463306
fffbff
0c8206
18c204
1104e8
3ff4c0
7188c0
b180c0
3ff0c0
3181a0
3181a0
3181a0
3ff130
318310
318218
31861c
3ff40f
30080e
303006
ENDCHAR
STARTCHAR ch-340
ENCODING 340
SWIDTH 1000 0
DWIDTH 24 0
BBX 24 24 0 -3
BITMAP
070100
0661c0
07f180
060180
463180
7ffb06
6033ff
662206
678604
7e04e8
6628c0
63e0c0
6000c0
6280c0
6290a0
729da0
7a99a0
6a91b0
6aa110
428118
429b1c
7fe20f
9e040e
101806
ENDCHAR
STARTCHAR ch-345
ENCODING 345
SWIDTH 1000 0
DWIDTH 24 0
BBX 24 24 0 -3
BITMAP
060200
060380
0d8300
086300
103b06
2f9bff
c00606
1fc604
1044e8
1048c0
1fc0c0
0000c0
0410c0
fff8c0
0c31a0
4d31a0
2cb1a0
1c71b0
2cb110
efb318
4d321c
0c320f
3cf40e
186806
ENDCHAR
STARTCHAR ch-347
ENCODING 347
SWIDTH 1000 0
DWIDTH 24 0
BBX 24 24 0 -3
BITMAP
030100
0301c0
068180
066180
0c3180
081b06
105bff
2fe206
c00604
0004e8
7cf8c0
4c98c0
4c98c0
4c98c0
4c98c0
7cf8a0
0000a0
2081b0
38e190
30c118
2cb11c
659b0f
411a0e
820406
ENDCHAR
STARTCHAR ch-351
ENCODING 351
SWIDTH 1000 0
DWIDTH 24 0
BBX 24 24 0 -3
BITMAP
020100
0a09c0
5e3d80
73c980
420980
420986
7239ff
438906
408b04
448ae8
448cc0
74b8c0
4488c0
4488c0
4488c0
fffca0
0000a0
0101b0
10c190
1c6118
38331c
30320f
60040e
800806
ENDCHAR
STARTCHAR ch-353
ENCODING 353
SWIDTH 1000 0
DWIDTH 24 0
BBX 24 24 0 -3
BITMAP
1c7100
1861c0
fffd80
186180
186180
7cf906
448bff
448b06
7cfa04
1102e8
1dc4c0
1980c0
3ff8c0
3100c0
7101a0
bff1a0
3101a0
310130
3ff310
310218
31061c
3ffc0f
30080e
303006
ENDCHAR
STARTCHAR ch-354
ENCODING 354
SWIDTH 1000 0
DWIDTH 24 0
BBX 24 24 0 -3
BITMAP
000e00
000c00
000c00
000c00
000c00
000c00
000c00
000c00
070c00
060c18
060ffc
060c00
060c00
060c00
060c00
060c00
060c00
060c00
060c00
060c00
060c00
060c06
ffffff
000000
ENDCHAR
STARTCHAR ch-355
ENCODING 355
SWIDTH 1000 0
DWIDTH 24 0
BBX 24 24 0 -3
BITMAP
000000
00000c
7ffffe
000c00
000c00
000c00
000c00
000c00
070c00
060c00
060c30
060ff8
060c00
060c00
060c00
060c00
060c00
060c00
060c00
060c00
060c00
060c06
ffffff
000000
ENDCHAR
STARTCHAR ch-356
ENCODING 356
SWIDTH 1000 0
DWIDTH 24 0
BBX 24 24 0 -3
BITMAP
01c700
018600
018600
018600
018608
39860e
31861c
318618
318630
31f660
318780
318600
318600
318600
318600
318600
318600
318602
318602
318602
31f603
ff87ff
7803fe
400000
ENDCHAR
STARTCHAR ch-358
ENCODING 358
SWIDTH 1000 0
DWIDTH 24 0
BBX 24 24 0 -3
BITMAP
000700
000640
006630
1ff618
000618
000600
000606
ffffff
000600
01c600
018600
1d8600
199300
19fb00
198300
198180
198180
1980c2
1998e2
19e072
1f803a
fe001f
78000f
400006
ENDCHAR
STARTCHAR ch-361
ENCODING 361
SWIDTH 1000 0
DWIDTH 24 0
BBX 24 24 0 -3
BITMAP
001c00
001800
071800
061830
061ff8
061800
061800
061800
061806
ffffff
000000
041c00
071860
061818
0c188c
0818ee
1019c6
20fb80
403700
000e00
001800
006000
038000
3c0000
ENDCHAR
STARTCHAR ch-362
ENCODING 362
SWIDTH 1000 0
DWIDTH 24 0
BBX 24 24 0 -3
BITMAP
000000
00000c
7ffffe
000e00
001c00
003800
007b00
00d8e0
039838
0e181c
70180c
001800
000000
3ffffc
001800
001800
071830
061ff8
061800
061800
061800
061806
ffffff
000000
ENDCHAR
STARTCHAR ch-367
ENCODING 367
SWIDTH 1000 0
DWIDTH 24 0
BBX 24 24 0 -3
BITMAP
001c00
001800
071860
061ff0
061800
061800
061806
ffffff
000000
181c18
191918
18d9d8
18d998
181a18
1bffd8
183818
187e18
185998
1898d8
1b18d8
181818
180018
1ffff8
180018
ENDCHAR
STARTCHAR ch-371
ENCODING 371
SWIDTH 1000 0
DWIDTH 24 0
BBX 24 24 0 -3
BITMAP
000e00
038c00
030c30
030ff8
030c00
030c06
ffffff
000040
000330
200316
3fffff
300300
300310
37fb1c
304318
3041b8
3251b0
3349e0
364cc0
244ce2
29c1b2
60c33b
40061f
80180e
ENDCHAR
STARTCHAR ch-372
ENCODING 372
SWIDTH 1000 0
DWIDTH 24 0
BBX 24 24 0 -3
BITMAP
000000
200006
3fffff
300000
30e0e0
30c8c6
37ffff
30c0c0
31e1e0
31d9d0
32cad8
34c4cc
38c8cf
30d0c6
300000
300700
21c600
218618
6187fc
418600
418600
818606
1fffff
000000
ENDCHAR
STARTCHAR ch-376
ENCODING 376
SWIDTH 1000 0
DWIDTH 24 0
BBX 24 24 0 -3
BITMAP
080018
0e07fc
4cc018
7fe018
60c7f8
60c018
7fc018
6007f8
600000
7fc806
60cfff
60d8c6
7fd8c8
0600c0
060ffc
66cccc
67eccc
660ccc
660ccc
660ccc
67ccfc
fe0cd8
7000c0
4000c0
ENDCHAR
STARTCHAR ch-377
ENCODING 377
SWIDTH 1000 0
DWIDTH 24 0
BBX 24 24 0 -3
BITMAP
000000
000006
ffffff
003000
003000
006000
006030
00fff8
00c030
018030
030060
06c060
0c30c0
3018c0
001980
000180
000300
000600
000c00
001800
007000
00c000
030000
1c0000
ENDCHAR
STARTCHAR ch-379
ENCODING 379
SWIDTH 1000 0
DWIDTH 24 0
BBX 24 24 0 -3
BITMAP
000000
000006
ffffff
060600
060600
060600
0c0608
0c660e
0ff61c
186638
106660
306780
28c600
44c600
86c600
078600
018600
030602
030602
060602
0c0603
1807ff
3003fe
c00000
ENDCHAR
STARTCHAR ch-383
ENCODING 383
SWIDTH 1000 0
DWIDTH 24 0
BBX 24 24 0 -3
BITMAP
00c400
ffe700
18060c
1807fe
18060c
18040c
198c1c
3fc818
3190f8
31a030
218000
618018
533ffc
8b0818
0f0430
060430
060260
0403c0
0c0180
0803c0
180670
100c3f
20300e
40c006
ENDCHAR
STARTCHAR ch-384
ENCODING 384
SWIDTH 1000 0
DWIDTH 24 0
BBX 24 24 0 -3
BITMAP
00c018
ffe07c
1801e0
181f80
180180
180180
198180
3fc180
318180
318186
21bfff
618180
530180
8b03c0
0f0340
060340
060660
040620
0c0430
080c30
180818
10101f
20200e
40c006
ENDCHAR
STARTCHAR ch-387
ENCODING 387
SWIDTH 1000 0
DWIDTH 24 0
BBX 24 24 0 -3
BITMAP
00c1c0
ffe180
180180
180180
18118c
181ffe
19998c
3fd98c
31998c
31998c
21998c
61998c
537fff
8b0340
0f0340
060340
060260
040620
0c0630
080430
180c18
10081f
20100e
402006
ENDCHAR
STARTCHAR ch-388
ENCODING 388
SWIDTH 1000 0
DWIDTH 24 0
BBX 24 24 0 -3
BITMAP
00c180
ffe180
180340
180340
180260
180620
198430
3fcc18
31891c
3191cf
21a386
618300
530640
8b0c70
0f10e0
0601c0
060308
04060e
0c181c
080038
180060
1001c0
200700
403800
ENDCHAR
STARTCHAR ch-390
ENCODING 390
SWIDTH 1000 0
DWIDTH 24 0
BBX 24 24 0 -3
BITMAP
000100
0061c0
fff180
0c0180
0c0100
0c0310
0cc20c
1fe206
18c43b
10ffe3
30de03
299000
458000
87080c
030ffe
060c0c
040c0c
0c0c0c
080c0c
100c0c
200c0c
400ffc
800c0c
000c0c
ENDCHAR
STARTCHAR ch-393
ENCODING 393
SWIDTH 1000 0
DWIDTH 24 0
BBX 24 24 0 -3
BITMAP
000400
00c700
ffe600
180600
180c06
180fff
199806
1f9006
31afe6
31cc66
318c66
298c66
658fe6
470c66
830c66
020c66
060fe6
040c66
0c0c06
08000e
10000c
20001c
4000f8
800030
ENDCHAR
STARTCHAR ch-394
ENCODING 394
SWIDTH 1000 0
DWIDTH 24 0
BBX 24 24 0 -3
BITMAP
0001c0
019180
ffdd80
181980
18198c
181ffe
199180
1f9180
31a180
318180
218186
61ffff
5307a0
8b07a0
0e0da0
060d90
041990
0c1998
08318c
10618f
20c186
430186
800180
000180
ENDCHAR
STARTCHAR ch-395
ENCODING 395
SWIDTH 1000 0
DWIDTH 24 0
BBX 24 24 0 -3
BITMAP
006390
fff30c
0c030c
0c0300
0c03fe
0c3f00
0cc300
1fc3fc
18ff00
18c300
10c306
3183ff
29bf00
658110
47019c
830198
0200b0
0600e0
040042
0c00e2
0803b2
100e3b
20f01f
40000e
ENDCHAR
STARTCHAR ch-397
ENCODING 397
SWIDTH 1000 0
DWIDTH 24 0
BBX 24 24 0 -3
BITMAP
00c018
ffe07c
1803e0
187e08
18230e
18118c
199998
3fd820
31800c
319ffe
218018
618030
530140
8b0180
0f0186
063fff
060180
040180
0c0180
080180
180180
100180
200f80
400300
ENDCHAR
STARTCHAR ch-405
ENCODING 405
SWIDTH 1000 0
DWIDTH 24 0
BBX 24 24 0 -3
BITMAP
00c1c0
ffe180
180180
18018c
183ffe
180010
19901c
3fc818
318c30
318c20
218046
61ffff
530000
8b0000
0f1018
061ffc
061818
041818
0c1818
081818
181818
101ff8
201818
401818
ENDCHAR
STARTCHAR ch-406
ENCODING 406
SWIDTH 1000 0
DWIDTH 24 0
BBX 24 24 0 -3
BITMAP
0180e0
ffc0c0
1800c6
183fff
1800c0
1800c0
1984cc
1fc7fe
31b60c
31b60c
31b60c
29b7fc
65360c
47360c
83360c
0237fc
06360c
04360c
0c360c
0837fc
103000
203006
403fff
803000
ENDCHAR
STARTCHAR ch-408
ENCODING 408
SWIDTH 1000 0
DWIDTH 24 0
BBX 24 24 0 -3
BITMAP
00cec0
ffec60
180c0c
18047e
180780
183e30
198360
3fc182
3182c2
318c72
21b01f
6186c7
530660
8b021e
0f03e0
063f10
060118
0401b0
0c00e0
0801c2
180362
10063a
20181f
406007
ENDCHAR
STARTCHAR ch-414
ENCODING 414
SWIDTH 1000 0
DWIDTH 24 0
BBX 24 24 0 -3
BITMAP
00c80c
ffeffe
180c0c
180c0c
180c0c
180ffc
198000
3fc80c
318ffe
318c0c
218c0c
618ffc
530c0c
8b0c0c
0f0ffc
060c0c
060c0c
040c0c
0c0ffc
080400
180710
10060c
200c06
403006
ENDCHAR
STARTCHAR ch-420
ENCODING 420
SWIDTH 1000 0
DWIDTH 24 0
BBX 24 24 0 -3
BITMAP
00c800
ffee00
180c0c
180ffe
181800
181ff0
19ac30
3fcc30
318ff0
318c30
218c30
618ff0
530006
8b7fff
0f0c00
06080c
061ffe
04124c
0c264c
08c48c
18089c
103118
200678
400030
ENDCHAR
STARTCHAR ch-426
ENCODING 426
SWIDTH 1000 0
DWIDTH 24 0
BBX 24 24 0 -3
BITMAP
0181c0
ffc18c
183ffe
180180
180180
181ffc
1b0000
3fa006
333fff
336006
236ff4
630000
530ff0
8b0810
0e0810
060ff0
060000
041010
0c0c1c
080638
180620
100046
20ffff
400000
ENDCHAR
STARTCHAR ch-427
ENCODING 427
SWIDTH 1000 0
DWIDTH 24 0
BBX 24 24 0 -3
BITMAP
00d326
ffffbf
181326
181326
181326
181f3e
198000
3fc000
319ffe
3198c6
2198c6
619ffe
5318c6
8b18c6
0f18c6
061ffe
0600c0
0400c0
0c00c6
083fff
1800c0
1000c0
2000c0
4000c0
ENDCHAR
STARTCHAR ch-431
ENCODING 431
SWIDTH 1000 0
DWIDTH 24 0
BBX 24 24 0 -3
BITMAP
00c380
ffe306
183fff
186006
186ff4
180100
19894c
3fdde6
31b186
318700
219ff8
61f818
531818
8b1ff8
0f1818
061818
061ff8
041818
0c1818
081ff8
180800
101e78
20381e
40c006
ENDCHAR
STARTCHAR ch-433
ENCODING 433
SWIDTH 1000 0
DWIDTH 24 0
BBX 24 24 0 -3
BITMAP
031c70
ff9860
181868
181a66
18ff63
181863
181860
3f1866
33ffff
332460
232464
63e767
522466
8a2426
0ee724
06242c
042428
0ce738
0c2412
08243a
19ff6a
10f0ce
208187
400603
ENDCHAR
STARTCHAR ch-434
ENCODING 434
SWIDTH 1000 0
DWIDTH 24 0
BBX 24 24 0 -3
BITMAP
032270
ffb360
182268
186666
185563
189563
180960
3f0066
33ffff
332460
232464
63e767
522466
8a2426
0ee724
06242c
042428
0ce738
0c2412
08243a
19ff6a
10f0ce
208187
400603
ENDCHAR
STARTCHAR ch-435
ENCODING 435
SWIDTH 1000 0
DWIDTH 24 0
BBX 24 24 0 -3
BITMAP
020300
03ff80
030300
030300
030300
030300
030300
060300
0603fe
0c01fe
180000
600060
0ffff0
0200c0
010180
018300
00c600
006c00
003800
006c00
00c780
0381fe
0e007c
70001c
ENDCHAR
STARTCHAR ch-436
ENCODING 436
SWIDTH 1000 0
DWIDTH 24 0
BBX 24 24 0 -3
BITMAP
403218
7ffbfc
600318
604318
607318
686318
64e318
62c218
62c61f
61840f
618800
61c00c
634ffe
63620c
62620c
663118
643198
6830f0
700060
6000f0
6031b8
7ffb1f
60060e
001806
ENDCHAR
STARTCHAR ch-437
ENCODING 437
SWIDTH 1000 0
DWIDTH 24 0
BBX 24 24 0 -3
BITMAP
00c430
23e7f8
3e0630
300630
300630
300630
318430
3fcc30
30083f
30101f
302000
318018
3fdffc
300418
300418
300230
318230
3e0360
f801c0
7001c0
300370
30063f
30181e
30e006
ENDCHAR
STARTCHAR ch-439
ENCODING 439
SWIDTH 1000 0
DWIDTH 24 0
BBX 24 24 0 -3
BITMAP
006230
23f3f8
3f0330
300330
306330
3ff330
306330
306230
3fe63f
30641f
306800
3fe00c
300ffe
30020c
306218
3ff118
3061b0
3060e0
206040
6060e0
40e1b8
40c31f
87c60e
019806
ENDCHAR
STARTCHAR ch-442
ENCODING 442
SWIDTH 1000 0
DWIDTH 24 0
BBX 24 24 0 -3
BITMAP
008430
30e7f8
0dc630
038630
030630
06c630
0c6630
306430
c00c3f
07081f
061000
064018
ffeffc
060418
0e0218
0f0230
1ec130
1661e0
3660c0
6601e0
860338
06061f
060c0e
063006
ENDCHAR
STARTCHAR ch-443
ENCODING 443
SWIDTH 1000 0
DWIDTH 24 0
BBX 24 24 0 -3
BITMAP
070230
0603f8
063330
fffb30
060330
060330
066330
7ff230
00063f
406c1f
7ff000
c0600c
c04ffe
1f820c
198218
198118
1989b0
1990e0
19a040
31e0e0
31c1b8
23831f
41060e
801806
ENDCHAR
STARTCHAR ch-444
ENCODING 444
SWIDTH 1000 0
DWIDTH 24 0
BBX 24 24 0 -3
BITMAP
070230
0603f8
063330
fffb30
060330
060330
7ff330
000230
40363f
7ffc1f
c03000
c0200c
3fcffe
00020c
000218
1f8118
1989b0
1990e0
19a040
31e0e0
31c1b8
23831f
41060e
801806
ENDCHAR
STARTCHAR ch-447
ENCODING 447
SWIDTH 1000 0
DWIDTH 24 0
BBX 24 24 0 -3
BITMAP
206230
3ff3f8
306330
306330
306330
306330
3fe230
30063f
32441f
324800
324000
3ff00c
3247fe
32420c
324218
324118
3ff9b0
2000e0
688040
4e60e0
4c31b8
98331f
10060e
201806
ENDCHAR
STARTCHAR ch-448
ENCODING 448
SWIDTH 1000 0
DWIDTH 24 0
BBX 24 24 0 -3
BITMAP
0c0230
5e63f8
71f330
606330
606330
606330
79e230
60663f
60641f
606800
7fe000
60600c
0007fe
07020c
060218
063118
fff9b0
0600e0
060040
0600e0
07f1b8
ff031f
78060e
401806
ENDCHAR
STARTCHAR ch-453
ENCODING 453
SWIDTH 1000 0
DWIDTH 24 0
BBX 24 24 0 -3
BITMAP
038218
0303fc
033318
7ffb18
104318
086318
0c4318
009a18
fffe1f
06040f
0c0800
1a400c
3377fe
c7610c
0d810c
19c118
31b098
c398f0
079860
0d98f0
3181b8
c1831f
0f860e
031806
ENDCHAR
STARTCHAR ch-454
ENCODING 454
SWIDTH 1000 0
DWIDTH 24 0
BBX 24 24 0 -3
BITMAP
403118
7ff9fc
600198
600198
67e198
642198
642198
642118
67e31f
60020f
600400
60000c
6f7bfe
69490c
69490c
694898
6948d8
6f7870
600020
600070
6018d8
7ffd9f
60030e
000c06
ENDCHAR
STARTCHAR ch-459
ENCODING 459
SWIDTH 1000 0
DWIDTH 24 0
BBX 24 24 0 -3
BITMAP
000000
040060
07fff0
061860
061860
061860
061860
061860
061860
061866
ffffff
0c30c0
0c30c0
0c30c0
0c30c0
0c30c0
0c30c0
0c30c0
0c30cc
1ffffe
180180
180180
000f80
000300
ENDCHAR
STARTCHAR ch-461
ENCODING 461
SWIDTH 1000 0
DWIDTH 24 0
BBX 24 24 0 -3
BITMAP
000000
040060
07fff0
060060
062060
061860
060c60
060c60
060060
060066
ffffff
0c00c0
0c00c0
0c40c0
0c30c0
0c18c0
0c18c0
0c00c0
0c00cc
1ffffe
180180
180180
000f80
000300
ENDCHAR
STARTCHAR ch-462
ENCODING 462
SWIDTH 1000 0
DWIDTH 24 0
BBX 24 24 0 -3
BITMAP
040000
070000
060000
0c000c
0ffffe
180000
100000
27ffe0
461860
861860
061860
061860
061866
ffffff
0c3060
0c3060
0c3060
0c3060
0c306c
1ffffe
1800c0
1800c0
0007c0
000180
ENDCHAR
STARTCHAR ch-466
ENCODING 466
SWIDTH 1000 0
DWIDTH 24 0
BBX 24 24 0 -3
BITMAP
001c00
001808
3ffffc
001800
001820
0ffff0
001800
001804
7ffffe
000000
040060
07fff0
061860
061860
061866
ffffff
0c3060
0c3060
0c306c
1ffffe
1800c0
1800c0
0007c0
000180
ENDCHAR
STARTCHAR ch-467
ENCODING 467
SWIDTH 1000 0
DWIDTH 24 0
BBX 24 24 0 -3
BITMAP
2001c0
380180
300186
31bfff
3fc300
600220
400210
bf8418
249fec
248f0c
248800
248000
248c9c
ffec98
248c98
248c98
248c98
248c98
248c98
7fe89a
41189a
01109b
0f201f
06400e
ENDCHAR
STARTCHAR ch-468
ENCODING 468
SWIDTH 1000 0
DWIDTH 24 0
BBX 24 24 0 -3
BITMAP
0e0700
0c0600
0c0600
0c0600
0c0600
0c0600
0c060c
0c061e
0c6638
0ff6e0
0c0700
0c0600
0c0600
0c0600
0c0600
0c0600
0c0600
0c0600
0c0602
0c6602
0f8602
fe0603
7007ff
4003fe
ENDCHAR
STARTCHAR ch-472
ENCODING 472
SWIDTH 1000 0
DWIDTH 24 0
BBX 24 24 0 -3
BITMAP
100018
1ffffc
181818
181818
181818
1ffff8
181818
181818
181818
1ffff8
180018
000000
0e0700
0c0618
0c663c
0ff670
0c06c0
0c0700
0c0602
0c0602
0ce602
ff0603
7807ff
4003fe
ENDCHAR
STARTCHAR ch-475
ENCODING 475
SWIDTH 1000 0
DWIDTH 24 0
BBX 24 24 0 -3
BITMAP
0000c0
0003e0
001f00
01f800
3f3000
003000
003000
003018
3ffffc
003000
003000
003000
003000
003006
ffffff
003000
003000
003000
003002
003002
003002
003003
003fff
001ffe
ENDCHAR
STARTCHAR ch-479
ENCODING 479
SWIDTH 1000 0
DWIDTH 24 0
BBX 24 24 0 -3
BITMAP
001c00
041800
071860
0e1818
0c188e
1818e7
30f9c3
603380
800e00
003800
01e180
1f07c0
e03e00
03f000
003060
1ffff0
003000
00300c
7ffffe
003000
003002
003003
003fff
001ffe
ENDCHAR
STARTCHAR ch-491
ENCODING 491
SWIDTH 1000 0
DWIDTH 24 0
BBX 24 24 0 -3
BITMAP
001c00
001800
001818
3ffffc
000000
03ffc0
0300c0
0300c0
13ffc0
100006
3fffff
300006
600604
603f08
07f000
003000
1fffe0
003000
003000
7ffffa
003002
003003
003fff
001ffe
ENDCHAR
STARTCHAR ch-492
ENCODING 492
SWIDTH 1000 0
DWIDTH 24 0
BBX 24 24 0 -3
BITMAP
0181c0
07c198
1e018c
f8018c
180182
183fff
180180
198188
ffd98e
180d8c
180d98
1801a0
198180
ffc1a0
180d98
18798c
18318e
182186
180780
180302
180002
180003
1fffff
0ffffe
ENDCHAR
STARTCHAR ch-495
ENCODING 495
SWIDTH 1000 0
DWIDTH 24 0
BBX 24 24 0 -3
BITMAP
0181c0
07c188
1e098c
f80998
1819a0
181940
180330
198218
ffc40c
18180c
1801c0
180188
19898c
ffc998
1819a0
181940
180320
180230
180418
18181a
180002
180003
1fffff
0ffffe
ENDCHAR
STARTCHAR ch-499
ENCODING 499
SWIDTH 1000 0
DWIDTH 24 0
BBX 24 24 0 -3
BITMAP
000600
003f00
07f000
006000
1fffe0
006000
7ffff8
006004
006006
007ffe
003ffc
030060
0f81f0
7c0f80
0c0180
7fcffc
0c0180
0c0180
ffeffe
0c0180
0c2182
0c3183
0ff1ff
07e0fe
ENDCHAR
ENDFONT
